<svg width="2500" height="2500" viewBox="0 0 2500 2500" fill="none" xmlns="http://www.w3.org/2000/svg">
<path fill-rule="evenodd" clip-rule="evenodd" d="M974.807 968.569H911.268V934.562H1680.91V968.569H974.807ZM1607.54 981.993H1680.89V1045.53H911.268V981.993H1607.54ZM1607.54 1036.58C1618.25 1036.58 1627.23 1027.63 1627.23 1016C1627.23 1005.26 1618.26 995.416 1607.54 995.416C1595.89 995.416 1586.94 1005.26 1586.94 1016C1586.94 1027.63 1595.89 1036.58 1607.54 1036.58ZM1607.54 831.647L1613.79 827.173L1639.73 843.281C1628.99 849.545 1609.3 887.132 1649.59 882.67C1689.86 877.301 1671.96 833.45 1658.52 824.501C1677.31 817.342 1690.74 804.813 1698.79 784.23C1738.18 790.494 1771.29 779.755 1792.77 743.064C1803.51 762.752 1794.55 819.131 1746.21 844.189C1697.9 869.246 1676.42 889.83 1681.79 919.362H1607.51L1449.09 918.467H1133.21L974.807 919.349H909.479C914.848 889.817 893.37 869.234 845.045 844.176C796.719 819.118 787.77 762.739 798.509 743.051C820.882 779.742 853.099 790.481 893.37 784.217C900.529 804.8 913.953 817.329 933.641 824.488C920.218 833.437 901.424 877.288 941.696 882.657C982.862 887.132 963.173 849.532 952.434 843.268L974.807 829.844L978.387 827.16L1001.65 843.268C990.021 847.743 983.756 895.173 1016.87 891.593C1049.09 888.909 1028.5 837.004 1013.29 830.752L1054.45 802.115L1096.52 830.752C1078.62 837.004 1067.88 893.396 1107.25 893.396C1120.68 893.396 1128.73 888.027 1133.21 880.867C1137.68 873.708 1136.79 863.864 1133.21 855.81C1129.63 849.545 1125.15 845.966 1118.89 843.281L1133.21 837.017L1162.74 821.803L1202.12 843.281C1180.64 848.663 1177.95 896.081 1214.64 897.871C1250.44 898.766 1245.07 864.759 1240.6 852.23C1236.95 842.892 1230.54 834.889 1222.23 829.291C1213.91 823.694 1204.08 820.769 1194.06 820.908C1219.12 786.007 1252.23 764.529 1291.61 762.739H1296.09C1337.26 762.739 1371.28 784.217 1398.13 820.908C1388.1 820.771 1378.27 823.696 1369.95 829.293C1361.63 834.89 1355.22 842.892 1351.57 852.23C1347.1 864.759 1340.85 898.766 1377.53 897.871C1414.21 896.081 1412.43 848.65 1390.07 843.281L1429.44 821.803L1449.12 831.647L1473.29 843.281C1451.81 849.545 1445.54 893.396 1484.91 893.396C1524.3 893.396 1513.56 837.017 1494.77 830.752L1537.72 802.115L1578.89 830.752C1564.57 837.004 1543.09 888.909 1576.2 891.593C1608.42 895.173 1602.17 847.743 1590.52 843.268L1607.54 831.647V831.647ZM1607.54 746.63C1626.83 760.106 1644.54 775.716 1660.32 793.166C1688.95 761.844 1717.6 744.841 1746.22 751.105L1755.19 725.152L1701.48 726.942C1698.79 714.413 1688.94 707.254 1671.95 704.569C1671.06 687.566 1646.01 675.037 1626.29 678.617C1626.29 669.668 1618.24 661.614 1607.52 655.349C1593.19 648.19 1575.31 644.61 1564.57 650.875C1560.08 629.397 1506.39 620.448 1490.26 635.661C1489.38 623.132 1469.69 615.078 1449.1 613.288C1430.31 612.393 1411.51 615.973 1404.37 625.817C1407.05 609.709 1359.61 600.759 1357.83 623.132C1346.18 588.231 1322.93 630.292 1310.39 613.288C1297.87 596.272 1321.13 582.848 1344.41 586.441C1341.72 570.332 1326.5 561.383 1306.82 561.383C1319.36 544.38 1307.7 526.482 1296.08 519.322C1294.28 520.217 1292.51 522.007 1291.59 522.902C1280.85 530.956 1274.59 547.065 1285.34 561.383C1265.65 561.383 1250.44 570.332 1247.76 586.441C1271.92 582.861 1294.28 596.285 1281.78 613.288C1269.23 630.292 1245.98 588.231 1234.33 623.132C1232.54 600.759 1185.11 609.709 1187.8 625.817C1179.74 614.183 1153.79 611.498 1133.21 615.078C1116.2 617.763 1102.78 624.922 1101.89 635.661C1086.67 620.448 1032.08 629.397 1028.5 650.875C1014.18 642.82 989.126 650.875 974.794 662.508C969.425 667.878 965.858 673.247 964.95 678.617C946.157 675.037 921.099 687.566 919.31 704.569C903.201 707.254 893.357 714.413 890.672 726.942L836.978 725.152L845.927 751.105C874.564 744.841 903.201 761.844 931.851 793.166C944.824 778.375 959.211 764.887 974.807 752.895C1003.44 732.312 1032.98 717.098 1064.3 708.136L1043.72 771.675H1092.94C1100.99 747.512 1115.31 728.719 1133.21 713.506C1146.64 701.872 1162.74 692.028 1180.65 683.079L1203.92 701.872C1182.44 723.363 1153.8 761.844 1182.44 775.268C1209.29 788.691 1242.4 745.735 1291.61 742.156H1296.09C1347.12 742.156 1382.02 788.691 1409.76 775.268C1438.39 761.844 1409.76 723.363 1389.17 701.872L1412.45 683.079C1424.96 689.343 1437.5 696.502 1449.12 705.451C1472.41 722.455 1490.29 743.933 1500.15 771.675H1549.37L1527.89 708.136C1555.61 716.19 1581.57 728.732 1607.54 746.63V746.63ZM1449.11 1036.58C1460.76 1036.58 1469.71 1027.63 1469.71 1016C1469.71 1005.26 1460.77 995.416 1449.11 995.416C1437.49 995.416 1428.54 1005.26 1428.54 1016C1428.55 1027.63 1437.49 1036.58 1449.11 1036.58ZM1291.61 1036.58C1302.35 1036.58 1311.32 1027.63 1311.32 1016C1311.32 1005.26 1302.36 995.416 1291.61 995.416C1279.99 995.416 1271.04 1005.26 1271.04 1016C1270.99 1018.71 1271.49 1021.41 1272.51 1023.93C1273.52 1026.45 1275.04 1028.73 1276.96 1030.65C1278.87 1032.58 1281.16 1034.09 1283.68 1035.11C1286.2 1036.13 1288.89 1036.63 1291.61 1036.58V1036.58ZM1291.61 699.2C1292.51 699.2 1294.29 700.095 1296.09 700.095C1308.64 700.095 1318.47 683.986 1318.47 665.193C1318.47 646.4 1308.64 630.292 1296.09 630.292C1294.43 630.328 1292.84 630.963 1291.61 632.081C1280.87 634.766 1273.72 649.085 1273.72 665.193C1273.72 681.302 1280.87 695.607 1291.61 699.2V699.2ZM1133.21 1036.58C1143.95 1036.58 1152.91 1027.63 1152.91 1016C1152.91 1005.26 1143.96 995.416 1133.21 995.416C1122.47 995.416 1112.62 1005.26 1112.62 1016C1112.62 1027.63 1122.47 1036.58 1133.21 1036.58ZM974.807 1036.58C986.441 1036.58 995.39 1027.63 995.39 1016C995.39 1005.26 986.441 995.416 974.807 995.416C964.068 995.416 955.119 1005.26 955.119 1016C955.119 1027.63 964.068 1036.58 974.807 1036.58ZM551.5 1505.53L459.324 1583.4C488.85 1594.42 519.997 1600.46 551.5 1601.29C581.032 1603.09 611.459 1601.29 642.781 1598.6V1144.87C628.463 1147.55 587.297 1133.23 576.558 1122.49L579.242 1482.28L551.5 1505.53V1505.53ZM2189.23 1472.42C2202.65 1479.59 2216.08 1488.53 2226.82 1498.38V1267.5C2213.97 1263.6 2201.41 1258.81 2189.23 1253.16C2177.61 1247.8 2165.09 1242.44 2151.67 1236.17V1452.76C2161.49 1458.11 2175.81 1464.36 2189.23 1472.42ZM2189.23 1171.71C2244.73 1199.46 2277.84 1211.99 2326.18 1225.41L2327.06 1474.22C2327.06 1504.65 2372.71 1504.65 2389.7 1510.02C2365.54 1528.81 2337.8 1563.73 2311.83 1587.86C2290.38 1569.07 2270.67 1547.6 2250.99 1528.81C2229.52 1548.5 2206.26 1567.29 2189.23 1586.09C2188.35 1586.09 2188.35 1586.97 2187.45 1587.86C2140.01 1536.87 2063.94 1515.39 2035.32 1508.21C2047.83 1500.16 2058.57 1490.33 2058.57 1478.68V1255.84C2058.57 1248.69 2050.52 1239.73 2041.57 1233.46C2097.96 1227.2 2146.29 1206.62 2182.97 1169.03C2184.77 1169.94 2187.45 1170.83 2189.23 1171.71V1171.71ZM1666.59 1921.68C1666.59 1922.59 1667.5 1922.59 1668.39 1922.59C1675.56 1924.36 1682.71 1926.15 1689.87 1928.84V1838.46C1682.7 1836.66 1675.55 1834.87 1668.39 1832.19H1666.59C1659.44 1829.5 1651.39 1826.82 1643.33 1824.13V1914.54C1651.39 1917.22 1659.44 1919.88 1666.59 1921.68ZM1666.59 1774.91C1695.24 1799.97 1741.77 1816.99 1748.03 1817.87V1941.35C1748.93 1952.09 1765.03 1954.78 1782.93 1942.26C1767.7 1970 1744.45 1973.57 1734.59 1974.48C1724.76 1976.25 1700.6 1959.25 1697.91 1950.32C1689.86 1953.88 1677.31 1960.15 1666.58 1966.42C1660.32 1969.11 1655.84 1972.68 1652.26 1975.36C1625.41 1952.99 1596.79 1945.83 1569.92 1946.71C1576.18 1942.25 1580.66 1937.77 1583.35 1933.29C1585.13 1927.92 1586.03 1928.82 1586.03 1918.97V1826.79C1600.35 1825.91 1639.72 1803.54 1663 1771.32C1664.81 1772.23 1665.71 1774.02 1666.59 1774.91V1774.91ZM1935.08 1209.31C1955.67 1224.53 1972.66 1233.48 1997.72 1240.64C1984.3 1248.7 1986.1 1265.69 1986.1 1276.43V1514.48H2010.26C1986.1 1530.59 1957.45 1552.99 1944.02 1585.18C1934.19 1554.75 1888.55 1525.22 1867.96 1514.48H1889.43V1297C1889.43 1272.87 1868.87 1255.84 1850.07 1250.47L1852.76 1247.78C1833.96 1254.06 1825.91 1269.26 1810.68 1276.43V1514.48H1840.21C1810.68 1524.34 1778.45 1553.87 1759.66 1595.03C1740.89 1550.3 1705.98 1525.22 1683.62 1514.48H1709.56V1297C1709.56 1272.87 1687.18 1255.84 1668.39 1250.47L1740.89 1191.4C1756.97 1200.35 1783.84 1216.46 1800.85 1238.85C1836.65 1227.21 1874.23 1207.51 1906.44 1178.87C1910.91 1186.05 1915.4 1194.1 1935.08 1209.31V1209.31ZM1491.2 1802.64C1500.13 1796.39 1508.2 1787.44 1515.36 1777.58C1526.98 1790.13 1548.47 1808.92 1569.04 1808.01C1558.3 1835.78 1535.93 1836.66 1518.94 1835.78C1511.77 1835.78 1500.15 1832.19 1491.2 1830.41C1481.34 1827.73 1473.29 1827.73 1473.29 1833.98L1471.48 1942.27H1489.4C1474.2 1946.74 1452.72 1955.7 1443.74 1975.39C1431.23 1955.7 1414.21 1947.64 1402.58 1942.27H1419.58V1834.87C1419.58 1822.36 1408.87 1814.3 1388.27 1817.87L1431.23 1779.39C1439.28 1783.87 1468.81 1802.64 1469.71 1814.29C1477.4 1811.47 1484.64 1807.55 1491.2 1802.64V1802.64ZM1491.2 1500.16C1502.82 1503.73 1517.14 1506.44 1532.36 1508.21V1288.97C1521.63 1285.38 1506.4 1280.01 1491.2 1274.64C1475.09 1269.27 1458.98 1263.9 1449.12 1259.44V1480.49C1458.09 1489.42 1472.39 1494.79 1491.2 1500.16ZM1491.2 1197.67C1532.36 1224.51 1593.21 1238.85 1647.8 1250.47C1637.06 1254.06 1631.69 1257.64 1631.69 1264.8V1493.01C1631.69 1503.73 1637.96 1514.47 1648.7 1521.64C1600.37 1525.21 1526.1 1569.06 1502.82 1595.02C1499.25 1590.53 1494.77 1586.97 1491.2 1583.4C1446.44 1547.6 1372.16 1537.75 1337.26 1532.38C1332.8 1531.5 1329.21 1530.57 1325.64 1530.57C1330.1 1527.01 1333.69 1524.32 1337.26 1519.84C1353.37 1504.64 1361.42 1487.64 1361.42 1470.62L1360.53 1269.26C1360.53 1262.11 1355.16 1258.52 1347.1 1251.37C1403.47 1245.1 1451.8 1232.57 1487.59 1195.88C1488.51 1195.89 1490.28 1196.78 1491.2 1197.67V1197.67ZM1337.25 1924.36C1340.84 1933.3 1358.73 1935.1 1388.27 1924.36C1383.78 1933.3 1382.9 1941.37 1352.47 1951.21C1348.88 1953.01 1343.54 1954.78 1337.25 1957.46C1327.42 1962.83 1315.77 1969.11 1310.4 1974.48C1296.98 1958.37 1286.24 1946.71 1265.67 1938.66C1271.04 1935.09 1274.6 1930.63 1277.29 1925.26C1279.97 1919.86 1280.85 1912.72 1280.85 1903.78V1797.26H1258.48V1782.94L1280.85 1782.06L1281.76 1766.83L1336.35 1735.52V1781.18H1375.72V1799.06H1336.35V1919.86C1336.37 1921.68 1336.37 1923.48 1337.25 1924.36ZM1337.25 1254.06C1340.84 1250.47 1345.3 1245.1 1348.87 1239.73C1345.3 1237.94 1340.84 1236.16 1337.25 1234.36C1311.31 1221.83 1288.03 1205.72 1269.23 1184.24C1245.07 1214.67 1213.75 1226.3 1177.95 1237.94C1175.27 1214.67 1134.1 1199.46 1117.1 1190.51L1040.12 1250.47C1059.81 1255.84 1081.29 1272.87 1081.29 1297L1082.18 1514.48H1049.07C1071.45 1525.22 1113.51 1550.3 1132.3 1595.03C1151.09 1553.87 1188.68 1524.34 1217.32 1514.48H1183.31V1276.43C1187.78 1257.64 1228.95 1286.29 1261.17 1285.37C1289.83 1284.49 1309.52 1286.29 1337.25 1254.06V1254.06ZM861.14 1922.59C896.042 1922.59 928.259 1924.36 956.896 1931.52C988.218 1927.93 999.852 1903.78 1015.07 1895.73L968.53 1979.85C929.154 1970.89 893.357 1965.52 861.14 1964.62C823.554 1962.82 790.442 1966.42 761.805 1974.48C774.334 1960.15 785.967 1946.71 785.967 1923.45L787.757 1735.52C789.547 1722.1 796.706 1709.56 809.235 1697.04C797.601 1688.08 770.754 1696.13 754.646 1703.29V1702.41C761.805 1682.7 788.652 1661.22 809.235 1648.7C826.239 1648.7 843.242 1651.39 861.14 1654.07C904.096 1661.22 951.527 1670.18 1007.91 1639.75C993.588 1655.84 979.269 1682.7 965.845 1700.6C930.036 1706.85 896.042 1709.53 861.127 1704.16C856.653 1703.28 852.178 1702.39 848.599 1701.48V1775.78C852.178 1773.1 856.653 1770.41 861.127 1769.5C895.147 1756.99 931.839 1787.42 971.215 1757.88C971.215 1778.45 965.845 1812.47 930.944 1816.96C902.306 1820.53 881.723 1805.31 861.14 1807.1C856.666 1807.99 852.191 1808.91 848.611 1810.67V1922.56C852.204 1922.59 856.666 1922.59 861.14 1922.59ZM861.14 1500.16C872.774 1503.73 887.093 1506.44 902.306 1508.21V1288.97C891.567 1285.38 876.354 1280.01 861.14 1274.64C845.032 1269.27 828.923 1263.9 819.079 1259.44V1480.49C828.041 1489.42 841.452 1494.79 861.14 1500.16ZM861.14 1197.67C901.411 1224.51 963.173 1238.85 1017.76 1250.47C1007.92 1254.06 1002.55 1257.64 1001.65 1264.8V1493.01C1001.65 1503.73 1007.92 1514.47 1019.55 1521.64C970.333 1525.21 896.055 1569.06 872.787 1595.02C869.207 1590.53 864.733 1586.97 861.153 1583.4C831.621 1559.24 789.56 1547.6 754.658 1540.44C728.706 1535.08 707.228 1532.39 695.594 1530.59C718.862 1512.7 731.391 1491.22 731.391 1470.63L730.509 1269.27C730.509 1262.13 725.126 1258.53 717.085 1251.39C729.614 1250.48 742.143 1248.7 754.671 1246.9C794.943 1238.85 829.844 1224.53 857.587 1195.89C858.456 1195.89 860.258 1196.78 861.14 1197.67V1197.67ZM1022.24 1837.56C1022.24 1837.56 1032.08 1779.4 1068.77 1778.48C1104.57 1777.6 1142.16 1837.56 1142.16 1837.56C1142.16 1837.56 1158.26 1802.65 1178.86 1784.77C1199.44 1766.86 1226.29 1788.34 1226.29 1811.62C1212.87 1805.34 1197.65 1801.76 1188.7 1806.25C1180.65 1811.62 1158.28 1852.78 1158.28 1852.78L1211.08 1927.06C1223.61 1942.29 1240.61 1927.94 1253.14 1923.49C1243.29 1953.92 1201.23 2001.34 1174.39 1970.91L1113.53 1902.9L1069.68 1959.29C1062.52 1969.15 1069.68 1969.15 1050.89 1971.83C1032.09 1975.4 1024.04 1960.19 1025.83 1931.56C1036.57 1941.39 1049.99 1952.13 1058.94 1939.62L1098.32 1883.22C1105.48 1873.37 1076.84 1851.01 1063.42 1831.32C1053.56 1816.99 1039.24 1832.19 1022.24 1837.56V1837.56ZM754.658 1093.86C772.557 1101.02 791.35 1106.39 812.828 1111.76C791.35 1123.39 772.557 1133.23 754.658 1141.29C727.811 1152.03 703.648 1156.5 679.486 1149.34V1589.65C694.699 1588.77 709.018 1587.85 723.337 1587.85C709.018 1598.59 694.699 1609.33 679.486 1619.18V1739.1C676.801 1755.21 659.798 1768.63 640.11 1768.63C618.632 1768.63 600.733 1753.41 600.733 1733.73C600.733 1714.94 618.632 1699.74 640.11 1699.74C646.374 1699.74 651.743 1700.62 656.218 1703.31V1633.49C622.211 1649.6 586.415 1663.02 551.513 1671.97C351.934 1723.9 145.209 1661.23 113.887 1450.93C112.992 1440.19 111.203 1428.55 110.308 1417.82V1356.97C127.298 1151.13 314.348 1057.17 484.382 1036.58C382.361 1137.71 220.382 1203.04 293.765 1437.52C315.243 1506.44 357.304 1542.23 395.785 1569.98L427.107 1549.38L430.687 1163.66L408.314 1153.82C462.904 1154.71 510.334 1139.5 551.5 1111.76C591.771 1084.91 625.778 1048.22 653.52 1003.47C675.893 1045.53 709.9 1075.06 754.658 1093.86V1093.86ZM754.658 1702.44V1703.32V1702.44Z" fill="white" fill-opacity="0.6"/>
</svg>
