<svg width="201" height="201" viewBox="0 0 201 201" fill="none" xmlns="http://www.w3.org/2000/svg">
<path d="M100.5 6.275C152.452 6.275 194.719 48.4995 194.719 100.4C194.719 152.301 152.452 194.525 100.5 194.525C48.5478 194.525 6.28125 152.301 6.28125 100.4C6.28125 48.4995 48.5478 6.275 100.5 6.275ZM100.5 0C44.9926 0 0 44.9478 0 100.4C0 155.852 44.9926 200.8 100.5 200.8C156.007 200.8 201 155.852 201 100.4C201 44.9478 156.007 0 100.5 0Z" fill="#C462B7"/>
<path d="M148.991 67.7638L100.5 151.479L52.0088 67.7638H148.991ZM159.883 61.4888H41.1171L100.5 164.01L159.883 61.4888Z" fill="#C462B7"/>
<path d="M114.294 87.2916L100.5 111.111L86.7064 87.2979H114.294V87.2916ZM125.185 81.0166H75.8147L100.5 123.636L125.185 81.0166Z" fill="#C462B7"/>
</svg>
