<svg width="2427" height="1347" viewBox="0 0 2427 1347" fill="none" xmlns="http://www.w3.org/2000/svg">
<path fill-rule="evenodd" clip-rule="evenodd" d="M131.358 752.286C142.606 760.393 155.063 766.674 168.27 770.897C194.404 779.147 222.446 779.142 248.579 770.884C261.858 766.679 274.39 760.402 285.711 752.286C297.126 744.068 307.16 734.086 315.438 722.715C331.647 700.315 340.355 673.362 340.314 645.713C340.314 632.134 338.264 618.49 334.088 605.364C325.561 578.492 308.619 555.075 285.763 538.57C274.456 530.426 261.927 524.13 248.643 519.919C222.468 511.625 194.37 511.621 168.192 519.906C141.415 528.482 118.109 545.448 101.722 568.297C93.6008 579.614 87.3235 592.147 83.1232 605.429C78.9729 618.554 76.9237 632.173 76.9237 645.713C76.9237 659.254 78.9599 672.729 83.1102 685.738C91.6429 712.519 108.557 735.849 131.358 752.286V752.286ZM416.732 0.583984H0L208.8 473.643L416.732 0.583984V0.583984Z" fill="white" fill-opacity="0.6"/>
<path fill-rule="evenodd" clip-rule="evenodd" d="M548.97 1140.79C548.956 1153.63 546.427 1166.35 541.526 1178.21C531.583 1202.15 512.56 1221.17 488.622 1231.12C476.755 1236.01 464.043 1238.54 451.204 1238.55H431.387C418.598 1238.55 405.797 1236.01 393.969 1231.12C370.027 1221.18 351.002 1202.15 341.065 1178.21C336.167 1166.35 333.642 1153.63 333.633 1140.79L333.465 919.063L107.934 918.752V1086.15C107.934 1120.2 114.73 1154.26 127.725 1185.71C140.816 1217.27 159.981 1245.95 184.131 1270.12C208.297 1294.26 236.971 1313.42 268.525 1326.51C300.098 1339.55 333.921 1346.28 368.081 1346.31H507.519C541.565 1346.31 575.61 1339.52 607.075 1326.51C638.63 1313.42 667.305 1294.26 691.469 1270.12C715.622 1245.95 734.788 1217.27 747.875 1185.71C760.914 1154.14 767.638 1120.31 767.667 1086.15V1.58228L548.867 1.89358L548.97 1140.79V1140.79ZM2215.86 919.063L2215.68 1115.93C2215.68 1128.72 2213.12 1141.53 2208.26 1153.35C2203.33 1165.21 2196.13 1175.98 2187.05 1185.06C2177.98 1194.14 2167.2 1201.35 2155.34 1206.25C2143.47 1211.16 2130.76 1213.68 2117.92 1213.7H2098.12C2085.28 1213.68 2072.57 1211.15 2060.7 1206.25C2048.84 1201.35 2038.06 1194.14 2028.99 1185.06C2019.95 1176.02 2012.67 1165.16 2007.78 1153.35C2002.89 1141.53 2000.34 1128.73 2000.34 1115.93L2000.44 1.89358L1781.66 1.58228L1781.73 1318.4H2426.32L2426.5 918.752L2215.86 919.063V919.063ZM1599.33 721.78C1588.52 696.201 1572.82 672.982 1553.1 653.43C1534.68 635.165 1512.57 621.049 1488.25 612.03C1508.49 602.319 1527.06 589.477 1543.3 573.977C1559.83 558.271 1574.42 539.659 1584.26 518.674C1594.13 497.505 1599.24 474.432 1599.25 451.075L1599.38 211.407C1599.38 183.704 1593.85 155.987 1583.3 130.424C1572.74 104.861 1557.08 81.4631 1537.53 61.9176C1517.99 42.3722 1494.61 26.7047 1469.06 16.1214C1443.51 5.53809 1415.82 0 1388.1 0H952.992V1318.47H1404.66C1446.45 1318.46 1487.3 1306.07 1522.04 1282.86C1556.78 1259.64 1583.86 1226.65 1599.86 1188.04C1610.45 1162.36 1615.92 1134.85 1615.94 1107.07C1615.94 1006.03 1615.68 904.991 1615.94 803.957C1615.94 775.731 1610.29 747.79 1599.33 721.78V721.78ZM1165.29 113.589L1279.8 113.2C1292.64 113.19 1305.36 115.715 1317.22 120.629C1329.09 125.543 1339.86 132.75 1348.93 141.837C1358 150.89 1365.25 161.733 1370.14 173.548C1375.03 185.364 1377.53 198.165 1377.58 210.966L1378.19 475.303C1378.2 491.364 1373.44 507.066 1364.51 520.42C1355.59 533.774 1342.91 544.18 1328.06 550.32C1318.21 554.368 1307.66 556.469 1297 556.507L1165.29 557.012V113.589ZM1380.29 1147.64C1376.22 1157.49 1370.24 1166.44 1362.7 1173.98C1355.16 1181.52 1346.2 1187.5 1336.35 1191.57C1326.5 1195.63 1315.95 1197.73 1305.29 1197.76L1165.31 1198.26V675.478L1288.09 675.089C1300.93 675.073 1313.65 677.594 1325.51 682.509C1337.38 687.423 1348.15 694.634 1357.22 703.726C1366.26 712.766 1373.54 723.622 1378.43 735.438C1383.32 747.253 1385.84 760.054 1385.87 772.855L1386.48 1116.58C1386.47 1127.24 1384.37 1137.79 1380.29 1147.64V1147.64Z" fill="white" fill-opacity="0.6"/>
</svg>
