<svg width="200" height="201" viewBox="0 0 200 201" fill="none" xmlns="http://www.w3.org/2000/svg">
<path d="M100 6.275C151.694 6.275 193.75 48.4995 193.75 100.4C193.75 152.301 151.694 194.525 100 194.525C48.3063 194.525 6.25 152.301 6.25 100.4C6.25 48.4995 48.3063 6.275 100 6.275ZM100 0C44.7688 0 0 44.9478 0 100.4C0 155.852 44.7688 200.8 100 200.8C155.231 200.8 200 155.852 200 100.4C200 44.9478 155.231 0 100 0Z" fill="#00C1CE"/>
<path d="M100 60.7106C121.8 60.7106 139.531 78.5127 139.531 100.4C139.531 122.287 121.8 140.089 100 140.089C78.2 140.089 60.4688 122.287 60.4688 100.4C60.4688 78.5127 78.2 60.7106 100 60.7106ZM100 54.4356C74.7125 54.4356 54.2188 75.0176 54.2188 100.4C54.2188 125.782 74.7188 146.364 100 146.364C125.281 146.364 145.781 125.782 145.781 100.4C145.781 75.0176 125.281 54.4356 100 54.4356Z" fill="#00C1CE"/>
</svg>
