<svg width="1104" height="1104" viewBox="0 0 1104 1104" fill="none" xmlns="http://www.w3.org/2000/svg">
<rect x="10" y="10" width="1084" height="1084" stroke="white" stroke-width="20"/>
<path d="M513 173.5V514H443L271.5 190.5V504.5H299V514H230.5V504.5H258V173.5H230.5V164H368.5L499.5 415V173.5H472V164H540.5V173.5H513ZM715.461 508.5C732.128 508.5 746.794 504 759.461 495C772.461 486 778.961 472.5 778.961 454.5C778.961 436.167 771.961 422.167 757.961 412.5C744.294 402.833 724.628 394.5 698.961 387.5C673.628 380.167 655.128 373.833 643.461 368.5C632.128 363.167 621.294 356.167 610.961 347.5C590.294 330.167 579.961 303.333 579.961 267C579.961 237.333 590.461 211.833 611.461 190.5C632.794 169.167 661.794 158.5 698.461 158.5C716.128 158.5 734.461 161.167 753.461 166.5C772.794 171.5 784.794 174 789.461 174C794.128 174 798.294 170.667 801.961 164H807.461L810.961 265H802.961C786.961 236 770.128 212.833 752.461 195.5C735.128 177.833 716.128 169 695.461 169C675.128 169 659.294 173.833 647.961 183.5C636.628 192.833 630.961 205.5 630.961 221.5C630.961 237.167 637.628 249.333 650.961 258C664.628 266.333 681.294 273.167 700.961 278.5C720.628 283.833 733.461 287.5 739.461 289.5C745.794 291.5 753.461 294.333 762.461 298C771.794 301.333 779.294 305 784.961 309C790.961 312.667 797.128 317.5 803.461 323.5C810.128 329.167 815.294 335.5 818.961 342.5C827.961 358.5 832.461 377.5 832.461 399.5C832.461 435.5 821.128 464.5 798.461 486.5C776.128 508.167 746.628 519 709.961 519C690.961 519 669.128 516.5 644.461 511.5C620.128 506.5 606.628 504 603.961 504C599.294 504 594.794 509 590.461 519H583.461L578.461 400H586.961C601.628 429 620.294 454.333 642.961 476C665.961 497.667 690.128 508.5 715.461 508.5ZM513 635.5V976H443L271.5 652.5V966.5H299V976H230.5V966.5H258V635.5H230.5V626H368.5L499.5 877V635.5H472V626H540.5V635.5H513ZM560.461 626H707.461C757.794 626 795.294 633.333 819.961 648C844.628 662.333 856.961 688.167 856.961 725.5C856.961 766.833 841.961 795.333 811.961 811C783.961 825.333 744.794 832.5 694.461 832.5H690.461V966.5H752.961V976H560.461V966.5H592.961V635.5H560.461V626ZM690.461 635.5V823H700.961C720.961 823 734.794 816.167 742.461 802.5C750.128 788.833 753.961 766.667 753.961 736V712C753.961 683.667 750.294 663.833 742.961 652.5C735.961 641.167 722.961 635.5 703.961 635.5H690.461Z" fill="white"/>
</svg>
