<svg width="201" height="201" viewBox="0 0 201 201" fill="none" xmlns="http://www.w3.org/2000/svg">
<path d="M100.5 6.275C152.452 6.275 194.719 48.4995 194.719 100.4C194.719 152.301 152.452 194.525 100.5 194.525C48.5478 194.525 6.28125 152.301 6.28125 100.4C6.28125 48.4995 48.5478 6.275 100.5 6.275ZM100.5 0C44.9926 0 0 44.9478 0 100.4C0 155.852 44.9926 200.8 100.5 200.8C156.007 200.8 201 155.852 201 100.4C201 44.9478 156.007 0 100.5 0Z" fill="#7156C6"/>
<path d="M153.834 47.119V114.287H86.5934V47.119H153.834ZM160.115 40.844H80.3121V120.562H160.109V40.844H160.115Z" fill="#7156C6"/>
<path d="M114.407 86.5072V153.675H47.1659V86.5072H114.407ZM120.688 80.2322H40.8847V159.95H120.682V80.2322H120.688Z" fill="#7156C6"/>
</svg>
