<svg width="2500" height="1426" viewBox="0 0 2500 1426" fill="none" xmlns="http://www.w3.org/2000/svg">
<path d="M28.3105 649.298C23.0945 649.298 18.9545 653.332 18.2801 659.083L0 797.938L18.2801 934.401C18.9545 940.152 23.092 944.158 28.3105 944.158C33.3623 944.158 37.4771 940.18 38.2828 934.451V934.424V934.451L59.9502 797.935L38.2828 659.055C37.5023 653.329 33.3371 649.298 28.3105 649.298ZM131.113 573.432C130.252 567.465 125.978 563.351 120.709 563.351C115.412 563.351 111.029 567.599 110.304 573.432C110.304 573.485 85.7322 797.938 85.7322 797.938L110.304 1017.47C111.004 1023.36 115.387 1027.61 120.709 1027.61C125.95 1027.61 130.226 1023.47 131.085 1017.53L159.042 797.938L131.113 573.432V573.432ZM518.346 366.347C508.266 366.347 499.93 374.599 499.448 385.084L479.877 798.125L499.448 1065.05C499.958 1075.48 508.266 1083.71 518.346 1083.71C528.374 1083.71 536.682 1075.46 537.273 1065V1065.08L559.398 798.125L537.273 385.084C536.68 374.599 528.372 366.347 518.346 366.347V366.347ZM317.927 509.905C310.185 509.905 303.868 516.088 303.247 524.34L281.203 798.016L303.247 1062.79C303.838 1070.99 310.183 1077.18 317.927 1077.18C325.589 1077.18 331.906 1070.99 332.58 1062.79L357.635 798.016L332.58 524.285C331.906 516.088 325.589 509.905 317.927 509.905ZM722.019 1083.69C734.52 1083.69 744.681 1073.6 745.192 1060.7L764.389 798.259L745.219 248.351C744.709 235.446 734.545 225.365 722.047 225.365C709.437 225.365 699.25 235.474 698.844 248.379L681.827 798.231L698.844 1060.78C699.248 1073.58 709.435 1083.69 722.019 1083.69V1083.69ZM1138.99 1084.92C1156.19 1084.92 1170.39 1070.75 1170.71 1053.33V1053.52V1053.33L1184.1 798.42L1170.71 163.318C1170.41 145.925 1156.19 131.732 1138.98 131.732C1121.75 131.732 1107.53 145.9 1107.26 163.346L1095.3 798.206C1095.3 798.61 1107.26 1053.49 1107.26 1053.49C1107.53 1070.75 1121.78 1084.92 1138.99 1084.92V1084.92ZM928.914 1083.93C943.891 1083.93 955.959 1071.91 956.364 1056.59V1056.77L972.653 798.314L956.336 244.428C955.932 229.103 943.863 217.115 928.887 217.115C913.804 217.115 901.736 229.106 901.412 244.428L886.924 798.342L901.44 1056.75C901.763 1071.91 913.832 1083.93 928.914 1083.93V1083.93ZM417.747 1081.51C426.645 1081.51 433.852 1074.38 434.524 1065L458.129 798.019L434.524 544.048C433.88 534.666 426.676 527.594 417.747 527.594C408.717 527.594 401.51 534.717 400.947 544.156L380.164 798.019L400.947 1064.98C401.538 1074.38 408.714 1081.51 417.747 1081.51ZM218.916 1066.88C225.421 1066.88 230.69 1061.75 231.442 1054.65L257.949 797.963L231.468 531.6C230.687 524.477 225.418 519.339 218.914 519.339C212.326 519.339 207.057 524.502 206.385 531.6L183.051 797.963L206.385 1054.6C207.032 1061.72 212.301 1066.88 218.916 1066.88V1066.88ZM1033.55 235.206C1017.28 235.206 1004.24 248.139 1003.92 264.699L990.696 798.367L1003.92 1055.16C1004.24 1071.51 1017.26 1084.44 1033.55 1084.44C1049.78 1084.44 1062.75 1071.53 1063.12 1054.97V1055.19L1077.96 798.395L1063.12 264.643C1062.74 248.139 1049.78 235.206 1033.55 235.206V235.206ZM619.805 1084.22C631.043 1084.22 640.318 1075.05 640.856 1063.36L661.503 798.203L640.856 290.693C640.29 278.97 631.043 269.831 619.805 269.831C608.461 269.831 599.214 278.998 598.729 290.693L580.449 798.203L598.757 1063.47C599.211 1075.05 608.459 1084.22 619.805 1084.22ZM850.361 1059.19V1059.06L868.103 798.287L850.361 229.856C849.929 215.744 838.8 204.668 825.061 204.668C811.242 204.668 800.113 215.716 799.739 229.856L783.985 798.259L799.764 1059.17C800.141 1073.14 811.272 1084.19 825.064 1084.19C838.827 1084.19 849.904 1073.14 850.363 1059.09V1059.19H850.361ZM2192.34 470.627C2150.21 470.627 2110.02 479.149 2073.41 494.499C2048.94 217.383 1816.56 0 1533.1 0C1463.74 0 1396.13 13.6576 1336.42 36.7496C1313.22 45.7292 1307.03 54.9766 1306.82 72.9081V1048.79C1307.06 1067.61 1321.66 1083.28 1340.02 1085.13C1340.8 1085.22 2186.83 1085.65 2192.32 1085.65C2362.12 1085.65 2499.79 947.972 2499.79 778.15C2499.79 608.325 2362.14 470.627 2192.34 470.627V470.627ZM1243.96 72.0493C1225.5 72.0493 1210.33 87.2124 1210.06 105.841L1196.19 798.501L1210.09 1049.89C1210.33 1068.25 1225.5 1083.39 1243.96 1083.39C1262.38 1083.39 1277.54 1068.25 1277.81 1049.62V1049.92L1292.89 798.501L1277.81 105.788C1277.54 87.2124 1262.38 72.0493 1243.96 72.0493V72.0493ZM248.3 1281.12C211.927 1272.57 202.086 1268 202.086 1253.59C202.086 1243.43 210.285 1232.92 234.857 1232.92C255.853 1232.92 272.254 1241.44 286.987 1256.52L320.082 1224.42C298.442 1201.81 272.228 1188.37 236.527 1188.37C191.255 1188.37 154.558 1213.94 154.558 1255.58C154.558 1300.8 184.079 1314.24 226.34 1324.05C269.594 1333.86 277.472 1340.45 277.472 1355.21C277.472 1372.58 264.648 1380.13 237.495 1380.13C215.532 1380.13 194.885 1372.6 178.81 1353.87L145.71 1383.39C163.076 1408.95 196.547 1425 234.855 1425C297.495 1425 325.023 1395.51 325.023 1351.93C325.025 1302.09 284.699 1289.64 248.3 1281.12V1281.12ZM459.442 1188.37C396.857 1188.37 359.837 1236.87 359.837 1306.69C359.837 1376.5 396.855 1424.97 459.442 1424.97C522.029 1424.97 559.1 1376.5 559.1 1306.69C559.1 1236.87 522.029 1188.37 459.442 1188.37V1188.37ZM459.442 1379.46C422.425 1379.46 406.991 1347.66 406.991 1306.71C406.991 1265.74 422.422 1233.94 459.442 1233.94C496.515 1233.94 511.893 1265.74 511.893 1306.71C511.893 1347.66 496.515 1379.46 459.442 1379.46ZM744.305 1320.8C744.305 1357.49 726.24 1380.13 697.098 1380.13C667.929 1380.13 650.237 1356.85 650.237 1320.15V1191.95H604.321V1320.8C604.321 1387.63 641.717 1425 697.096 1425C755.434 1425 790.193 1386.64 790.193 1320.16V1191.95H744.305V1320.8ZM988.14 1289C988.14 1301.79 988.784 1330.61 988.784 1339.14C985.828 1333.22 978.301 1321.77 972.734 1313.22L891.412 1191.92H847.509V1421.4H892.756V1320.42C892.756 1307.63 892.109 1278.81 892.109 1270.28C895.039 1276.17 902.62 1287.65 908.159 1296.2L992.411 1421.4H1033.38V1191.92H988.137V1289H988.14V1289ZM1164.15 1191.95H1092.37V1421.43H1160.84C1219.85 1421.43 1278.22 1387.31 1278.22 1306.69C1278.22 1222.75 1229.69 1191.95 1164.15 1191.95V1191.95ZM1160.84 1376.85H1138.26V1236.55H1162.51C1211.03 1236.55 1231.04 1259.8 1231.04 1306.69C1231.03 1348.65 1209.04 1376.85 1160.84 1376.85ZM1420.13 1233.91C1440.78 1233.91 1453.9 1243.11 1462.1 1258.83L1504.71 1239.18C1490.27 1209.36 1464.03 1188.37 1420.78 1188.37C1360.85 1188.37 1318.86 1236.87 1318.86 1306.69C1318.86 1379.11 1359.16 1424.97 1419.13 1424.97C1460.78 1424.97 1488.31 1405.65 1504.03 1373.2L1465.37 1350.24C1453.25 1370.59 1441.1 1379.43 1420.45 1379.43C1386.04 1379.43 1366.04 1347.95 1366.04 1306.69C1366.02 1264.1 1385.75 1233.91 1420.13 1233.91V1233.91ZM1590.33 1191.95H1544.44V1421.43H1682.36V1376.15H1590.33V1191.95V1191.95ZM1803.25 1188.37C1740.62 1188.37 1703.6 1236.87 1703.6 1306.69C1703.6 1376.5 1740.62 1424.97 1803.25 1424.97C1865.84 1424.97 1902.88 1376.5 1902.88 1306.69C1902.89 1236.87 1865.84 1188.37 1803.25 1188.37V1188.37ZM1803.25 1379.46C1766.18 1379.46 1750.8 1347.66 1750.8 1306.71C1750.8 1265.74 1766.18 1233.94 1803.25 1233.94C1840.25 1233.94 1855.65 1265.74 1855.65 1306.71C1855.65 1347.66 1840.25 1379.46 1803.25 1379.46ZM2088.06 1320.8C2088.06 1357.49 2070.08 1380.13 2040.91 1380.13C2011.69 1380.13 1994.02 1356.85 1994.02 1320.15V1191.95H1948.13V1320.8C1948.13 1387.63 1985.5 1425 2040.91 1425C2099.25 1425 2133.98 1386.64 2133.98 1320.16V1191.95H2088.06V1320.8V1320.8ZM2263.1 1191.95H2191.35V1421.43H2259.82C2318.86 1421.43 2377.17 1387.31 2377.17 1306.69C2377.17 1222.75 2328.67 1191.95 2263.1 1191.95V1191.95ZM2259.82 1376.85H2237.21V1236.55H2261.49C2309.96 1236.55 2329.96 1259.8 2329.96 1306.69C2329.96 1348.65 2308 1376.85 2259.82 1376.85V1376.85Z" fill="white" fill-opacity="0.6"/>
</svg>
