<svg width="2500" height="332" viewBox="0 0 2500 332" fill="none" xmlns="http://www.w3.org/2000/svg">
<g clip-path="url(#clip0)">
<path d="M359.136 0.56037H34.8773C30.2557 0.492778 25.6667 1.34469 21.3772 3.06657C17.0878 4.78844 13.1835 7.34593 9.89131 10.5903C6.59914 13.8347 3.98484 17.7012 2.20042 21.965C0.415998 26.2288 -0.50293 30.8048 -0.50293 35.427C-0.50293 40.0491 0.415998 44.6252 2.20042 48.889C3.98484 53.1528 6.59914 57.0193 9.89131 60.2637C13.1835 63.508 17.0878 66.0655 21.3772 67.7874C25.6667 69.5093 30.2557 70.3612 34.8773 70.2936H165.619V301.283C165.617 305.293 166.405 309.263 167.939 312.967C169.473 316.671 171.722 320.036 174.557 322.871C177.393 325.705 180.759 327.952 184.464 329.484C188.169 331.016 192.14 331.803 196.149 331.799C200.156 331.801 204.124 331.013 207.826 329.479C211.527 327.946 214.891 325.698 217.723 322.864C220.555 320.03 222.801 316.665 224.331 312.962C225.861 309.259 226.647 305.29 226.642 301.283V70.2936H359.143C368.302 70.1587 377.04 66.4254 383.469 59.9005C389.898 53.3756 393.501 44.5832 393.5 35.4233C393.499 26.2634 389.894 17.4718 383.464 10.9483C377.033 4.42477 368.295 0.693336 359.136 0.56037V0.56037ZM1959.54 0.56037H1635.28C1626.03 0.56037 1617.16 4.23459 1610.62 10.7747C1604.08 17.3149 1600.41 26.1853 1600.41 35.4344C1600.41 44.6836 1604.08 53.554 1610.62 60.0941C1617.16 66.6343 1626.03 70.3085 1635.28 70.3085H1766.02V301.298C1766.02 305.305 1766.81 309.273 1768.34 312.976C1769.87 316.679 1772.12 320.043 1774.95 322.877C1777.78 325.711 1781.14 327.959 1784.85 329.493C1788.55 331.026 1792.52 331.815 1796.52 331.814C1800.53 331.819 1804.5 331.033 1808.21 329.501C1811.91 327.969 1815.28 325.722 1818.11 322.887C1820.95 320.053 1823.2 316.687 1824.73 312.982C1826.26 309.278 1827.05 305.307 1827.05 301.298V70.2936H1959.55C1964.13 70.2946 1968.67 69.3932 1972.9 67.6411C1977.13 65.8889 1980.97 63.3203 1984.21 60.082C1987.45 56.8437 1990.02 52.9992 1991.77 48.7681C1993.52 44.5371 1994.42 40.0024 1994.42 35.4232C1994.41 26.1757 1990.74 17.3082 1984.2 10.7706C1977.66 4.23293 1968.79 0.560369 1959.54 0.56037V0.56037ZM511.667 301.283C511.671 305.291 510.885 309.259 509.354 312.962C507.823 316.665 505.576 320.03 502.744 322.864C499.911 325.699 496.547 327.947 492.845 329.48C489.142 331.013 485.174 331.801 481.167 331.799C477.159 331.803 473.189 331.016 469.485 329.484C465.781 327.952 462.415 325.704 459.581 322.87C456.746 320.035 454.499 316.67 452.966 312.966C451.434 309.262 450.648 305.292 450.652 301.283V34.5582C450.654 26.465 453.869 18.7037 459.591 12.9802C465.313 7.25671 473.074 4.03942 481.167 4.03547C489.258 4.0414 497.016 7.2598 502.735 12.9833C508.455 18.7068 511.667 26.4669 511.667 34.5582V301.283ZM2373.12 7.51803H2152.67C2082.61 7.51803 2025.8 64.3501 2025.8 134.404V204.957C2025.8 275.026 2082.61 331.791 2152.67 331.791H2373.12C2443.19 331.791 2500 275.026 2500 204.957V134.404C2500 64.3501 2443.19 7.51803 2373.12 7.51803V7.51803ZM2444.17 205.599C2444.17 240.648 2415.78 269.016 2380.76 269.016H2148.5C2140.17 269.019 2131.92 267.38 2124.23 264.195C2116.53 261.009 2109.54 256.338 2103.65 250.449C2097.75 244.56 2093.08 237.568 2089.89 229.872C2086.71 222.177 2085.07 213.928 2085.07 205.599V133.71C2085.07 116.89 2091.76 100.761 2103.65 88.8692C2115.55 76.9771 2131.68 70.2956 2148.5 70.2936H2380.76C2415.78 70.2936 2444.17 98.7133 2444.17 133.71V205.599V205.599ZM800.578 37.6231C800.568 46.5163 797.031 55.0423 790.743 61.3307C784.454 67.6191 775.928 71.1562 767.035 71.1661C758.139 71.1661 749.607 67.6321 743.317 61.3416C737.026 55.0511 733.492 46.5193 733.492 37.6231C733.492 28.727 737.026 20.1952 743.317 13.9047C749.607 7.61419 758.139 4.08022 767.035 4.08022C775.931 4.08219 784.461 7.6168 790.751 13.9069C797.041 20.197 800.576 28.7276 800.578 37.6231V37.6231ZM887.187 37.6231C887.175 46.5157 883.637 55.0406 877.35 61.3285C871.062 67.6165 862.537 71.1542 853.644 71.1661C844.748 71.1661 836.216 67.6321 829.926 61.3416C823.635 55.0511 820.101 46.5193 820.101 37.6231C820.101 28.727 823.635 20.1952 829.926 13.9047C836.216 7.61419 844.748 4.08022 853.644 4.08022C862.539 4.08417 871.069 7.61941 877.358 13.9091C883.648 20.1987 887.183 28.7282 887.187 37.6231V37.6231Z" fill="white" fill-opacity="0.6"/>
<path d="M960.642 134.725C977.503 134.725 991.164 120.675 991.164 103.337C991.164 86.0437 977.503 71.9942 960.642 71.9942H948.315C943.796 72.0889 939.304 71.2807 935.102 69.6169C930.899 67.9532 927.071 65.4674 923.842 62.3051C920.613 59.1429 918.048 55.3679 916.296 51.2014C914.545 47.035 913.643 42.5608 913.643 38.0411C913.643 33.5215 914.545 29.0473 916.296 24.8808C918.048 20.7143 920.613 16.9393 923.842 13.7771C927.071 10.6149 930.899 8.12903 935.102 6.46527C939.304 4.80152 943.796 3.99331 948.315 4.08802L953.028 4.17751C1004.97 4.17751 1047.09 47.4224 1047.09 100.779C1047.09 154.226 1004.97 197.463 953.028 197.463L954.639 197.419H721.001C704.163 197.419 690.501 183.421 690.501 166.075C690.501 148.73 704.17 134.732 721.001 134.732L960.642 134.725V134.725ZM1194.63 0.240056L1196.26 0.195312C1142.32 0.195312 1098.56 45.1703 1098.56 100.63C1098.56 156.098 1142.3 201.028 1196.26 201.028L1201.17 201.117H1483.95C1500.8 201.117 1514.45 215.122 1514.45 232.46C1514.45 249.799 1500.8 263.811 1483.95 263.811H1055.01C1038.15 263.811 1024.48 277.86 1024.48 295.199C1024.48 312.485 1038.15 326.534 1055.01 326.534H1477.92H1476.34C1528.26 326.534 1570.36 283.289 1570.36 229.895C1570.36 176.501 1528.25 133.256 1476.34 133.256L1471.59 133.166H1187.59C1170.66 133.166 1156.94 119.072 1156.94 101.637C1156.94 84.2018 1170.68 70.1 1187.59 70.1L1194.17 70.2865H1518.43C1527.59 70.1525 1536.33 66.4194 1542.76 59.8938C1549.2 53.3682 1552.8 44.5742 1552.8 35.4124C1552.8 26.2506 1549.2 17.4566 1542.76 10.9311C1536.33 4.40547 1527.59 0.672312 1518.43 0.538348L1196.26 0.195312" fill="white" fill-opacity="0.6"/>
<path d="M632.945 106.99C632.945 117.609 633.065 128.176 632.99 138.788C632.848 156.499 633.191 174.21 633.109 191.869C632.99 215.337 636.89 245.316 659.471 258.582C665.355 262.065 673.103 263.802 679.911 263.802H946.652C963.49 263.802 977.144 277.852 977.144 295.138C977.144 312.476 963.49 326.526 946.652 326.526H679.911C569.521 326.526 570.267 207.418 570.267 207.418V106.99C570.267 50.9858 614.392 5.63796 668.845 5.63796L671.656 5.54102C675.867 5.54297 680.037 6.37433 683.926 7.98763C687.816 9.60093 691.35 11.9646 694.326 14.9436C697.302 17.9226 699.663 21.4587 701.272 25.3499C702.882 29.2411 703.71 33.4113 703.708 37.6223C703.708 57.1082 683.849 66.9071 668.039 72.4927C659.896 75.3712 651.864 78.9432 645.093 84.4393C641.438 87.3456 638.4 90.9535 636.159 95.051C634.37 98.4813 632.945 103.105 632.945 106.99V106.99Z" fill="white" fill-opacity="0.6"/>
</g>
<defs>
<clipPath id="clip0">
<rect width="2500" height="332" fill="white"/>
</clipPath>
</defs>
</svg>
